<svg xmlns="http://www.w3.org/2000/svg" xmlns:xlink="http://www.w3.org/1999/xlink" viewBox="0 0 155 103" style="background-color:#fff" aria-labelledby="adjzk9gj3swi1b5p4h4ic9rnofvdedzp" class="logo" width="20%" height="20%">
    <defs>
        <path id="a" d="M18 18h121.57v70H18z"/>
    </defs>
    <clipPath id="b">
        <use xlink:href="#a" overflow="visible"/>
    </clipPath>
    <path d="M37.91 18.07c-5.02.47-9.29 3.87-10.83 8.62-1.22 3.74-.67 7.74 1.51 11.05.73 1.12 2.29 2.68 3.39 3.41 5.14 3.41 11.86 2.7 16.09-1.7 1.77-1.86 2.89-4.1 3.36-6.74.18-1 .18-3.01.01-4.05-.91-5.42-5.04-9.59-10.35-10.45-1-.16-2.29-.22-3.18-.14zm79.03-.02c-.11.02-.56.11-1 .2-4.87 1.01-8.64 4.81-9.72 9.79-.15.71-.18 1.08-.18 2.54s.02 1.83.18 2.53c1.11 5.14 4.9 8.89 10.02 9.91 1.18.24 3.26.25 4.46.03 5.17-.92 9.18-4.89 10.23-10.11.22-1.14.2-3.7-.04-4.85-.53-2.47-1.58-4.48-3.25-6.22-2-2.09-4.3-3.31-7.1-3.76-.67-.11-3.05-.15-3.6-.06zm-39.39 7.27l-.19.15-.02 2.95-.02 2.95-.66-.06c-.36-.03-1.06-.13-1.56-.22-.49-.09-1.39-.24-1.99-.35-2.98-.53-5.36-.39-6.97.41-.81.4-1.26.73-1.94 1.42-2.12 2.14-3.5 6.01-4.42 12.33-.56 3.88-.44 6.42.38 8.12.36.75 1.22 1.61 1.94 1.96 1.54.73 3.45.77 5.04.09 2.41-1.03 4.66-3.65 6.43-7.49.39-.83.58-1.15.77-1.29l.26-.18h4.15c4.08 0 4.16 0 4.37.17.13.11.47.7.88 1.56.79 1.64 1.39 2.65 2.19 3.72 1.45 1.93 3.1 3.21 4.84 3.76.79.24 2.41.27 3.24.04 3.18-.86 4.21-3.62 3.49-9.26-.23-1.77-.68-4.18-1.1-5.91-1.38-5.65-3.44-8.56-6.73-9.51-.58-.17-.81-.19-2.31-.18-1.72 0-2.34.06-4.42.4-.66.11-1.56.24-1.99.29-.42.05-.87.1-.99.12l-.23.03v-2.81c0-3.03-.02-3.21-.42-3.32a8.62 8.62 0 00-1-.05c-.7 0-.87.03-1.02.16zm11.23 10.39c1.03.79.49 2.43-.81 2.43-.94 0-1.6-.98-1.19-1.78.16-.32.49-.66.79-.84.26-.16.89-.06 1.21.19zm-18.62.13c.12.04.25.13.28.18.03.06.06.56.06 1.13v1.03l1.02.03c1.31.03 1.33.05 1.33 1.21 0 1.17-.01 1.17-1.37 1.21l-1.06.03v1c0 1.37-.02 1.39-1.16 1.39-1.19 0-1.19 0-1.19-1.35v-1.03l-1.05-.03c-1.36-.03-1.39-.05-1.39-1.05 0-.78.13-1.13.47-1.29.11-.05.6-.09 1.11-.09h.93v-.94c0-1.03.07-1.3.4-1.42.31-.11 1.35-.11 1.62-.01zm15.77 2.39c.36.15.77.64.83.99.18.95-.76 1.83-1.67 1.58-.69-.19-1.17-.99-.98-1.65.25-.8 1.08-1.23 1.82-.92zm5.29.02c.87.42 1.07 1.52.4 2.19-.67.67-1.71.5-2.15-.37-.27-.52-.19-1.04.23-1.49.42-.45 1-.58 1.52-.33zm-2.87 2.51c.28.07.68.41.84.72.17.33.16.88-.01 1.25-.3.63-1.21.88-1.86.51-1.08-.61-.82-2.23.41-2.5.14-.03.28-.04.32-.03.05-.01.18.02.3.05zm-60.69 4.61c-1.14.16-2.12.58-3.08 1.3-.88.67-1.39 1.41-1.99 2.85-2.14 5.22-3.95 17.12-4.51 29.77-.12 2.79-.11 6.76.02 7.09.18.42.53.78.98 1.02l.41.21 4.86.06c2.67.03 7.36.11 10.4.15 6.12.1 6.03.11 6.72-.4.68-.5.61-.11 1.94-10.05.66-4.92 1.22-8.95 1.25-8.95.02 0 .26.32.53.71 1.61 2.4 3.44 4.1 5.18 4.83 2.29.95 6.68 1.73 12.24 2.15 2.46.2 5.77.32 7.2.27 1.16-.03 1.39-.07 1.94-.26 1.58-.55 2.93-1.9 3.47-3.46.25-.72.31-2.18.12-2.94-.22-.89-.74-1.82-1.38-2.48-.67-.68-1.3-1.08-2.2-1.39-.62-.21-.76-.23-3.4-.33-5.47-.21-9.98-.69-12.79-1.34l-.71-.17-.43-.58c-.6-.81-1.44-2.31-4.18-7.47-2.07-3.92-3.43-5.7-5.21-6.85-.87-.57-1.52-.77-5.12-1.58-1.91-.43-4.12-.95-4.9-1.14-2.9-.73-4.34-.99-5.92-1.05-.51-.03-1.16-.01-1.44.03zm99.49.16c-1.01.15-2.73.51-4.46.94-.96.24-3.22.77-5.02 1.18-3.86.86-3.99.9-4.73 1.28-.79.4-1.2.69-1.94 1.4-1.52 1.47-2.54 3.07-5.19 8.23-1.54 2.98-2.65 4.85-3.18 5.32-.43.37-4.13.99-8.01 1.32-2 .17-3.87.28-6.08.34-2.11.06-2.69.16-3.59.64-1.36.72-2.36 1.97-2.73 3.42-.16.64-.16 2.07 0 2.79.23.99.64 1.69 1.46 2.51.57.57.87.81 1.34 1.03 1.13.55 1.41.59 3.68.58 7.64-.06 15.72-1.14 18.68-2.52 1.77-.82 3.35-2.33 5.03-4.8.28-.42.49-.67.52-.6.02.07.57 4.09 1.22 8.95.65 4.86 1.22 8.98 1.27 9.15.12.4.57.91.98 1.13l.33.16 5.6-.09c3.07-.05 7.8-.11 10.49-.13 3.14-.03 5.03-.08 5.25-.14.45-.11 1.08-.68 1.31-1.18l.19-.39-.05-3.5c-.06-4.8-.37-9.7-.96-14.91-1.2-10.86-2.96-18.13-4.89-20.23-.66-.73-1.82-1.42-2.9-1.74-.66-.18-2.7-.27-3.62-.14z" clip-path="url(#b)" fill="#1b70f0"/>
</svg>
